# xmcd
#
# Track frame offsets:
# 150
# 26265
# 70826
# 96189
# 116146
# 137552
# 168850
# 194941
# 221140
# 241404
# 271117
#
# Disc length: 3971 seconds
#
#
# Revision: 0
# Processed by: cddbd v1.5.2PL0 Copyright (c) Steve Scherf et al.
# Submitted via: FreeRIP 2.951 
#
DISCID=a00f810b
DTITLE=Bon Jovi - Keep The Faith
DYEAR=1900
DGENRE=Rock
TTITLE0=Blame It On The LOve Of Rock 'n' Roll
TTITLE1=Day Country
TTITLE2=Fear
TTITLE3=I want You
TTITLE4=I'll Sleep When I'm Dead
TTITLE5=Woman In Love
TTITLE6=I Believe
TTITLE7=Keep The Faith
TTITLE8=If I Was Your Mother
TTITLE9=Bed Of Roses
TTITLE10=Little Bit Of Soul
EXTD=
EXTT0=
EXTT1=
EXTT2=
EXTT3=
EXTT4=
EXTT5=
EXTT6=
EXTT7=
EXTT8=
EXTT9=
EXTT10=
PLAYORDER=
